# xmcd
#
# Track frame offsets: 
#        150
#        11648
#        22958
#        39433
#        52690
#        63020
#        76310
#        86743
#        99553
#        111020
#        122363
#        134688
#        145353
#        159770
#        170605
#        182005
#        195160
#        209388
#
# Disc length: 2939 seconds
#
# Revision: 0
# Processed by: cddbd v1.5.2PL0 Copyright (c) Steve Scherf et al.
# Submitted via: ExactAudioCopy v1.0b2
#
DISCID=dd0b7912
DTITLE=Various Artist - The Ultimate Party Rock Album
DYEAR=1900
DGENRE=Blues
TTITLE0=The Troggs - Wild Thing
TTITLE1=Gene Chandler - Duke Of Earl
TTITLE2=Muddy Waters - Got My Mojo Working
TTITLE3=Screamin' Jay Hawkins - I Put A Spell On You
TTITLE4=Jessie Hill - Ooh Poo Pah Doo
TTITLE5=Buster Brown - Fannie Mae
TTITLE6=The Monotones - Book Of Love
TTITLE7=Tommy Tucker - Hi Heel Sneakers
TTITLE8=John Lee Hooker - Boom Boom
TTITLE9=Bobby Moore and The Rythm Aces - Searchin' For My Love
TTITLE10=The Capitols - Cool Jerk
TTITLE11=The Soul Survivors - Expressway To Your Heart
TTITLE12=Bo Diddley - Say Man
TTITLE13=Lee Dorsey - Ya Ya
TTITLE14=Elmore James - Shake Your Money Maker
TTITLE15=Eugene Church - Pretty Girls Everywhere
TTITLE16=Screamin' Jay Hawkins - Alligator Wine
TTITLE17=Jody Reynolds - Endless Sleep
EXTD=
EXTT0=
EXTT1=
EXTT2=
EXTT3=
EXTT4=
EXTT5=
EXTT6=
EXTT7=
EXTT8=
EXTT9=
EXTT10=
EXTT11=
EXTT12=
EXTT13=
EXTT14=
EXTT15=
EXTT16=
EXTT17=
PLAYORDER=
